<svg width="55" height="54" viewBox="0 0 55 54" fill="none" xmlns="http://www.w3.org/2000/svg">
    <path
        d="M52.9065 47.9725H50.2873V31.3838C50.287 30.9017 49.8957 30.5111 49.4135 30.5114C49.129 30.5116 48.8624 30.6504 48.6991 30.8836L36.476 48.3453C36.1996 48.7404 36.296 49.2848 36.6912 49.561C36.8377 49.6635 37.0121 49.7185 37.191 49.7186H48.5411V52.3379C48.5411 52.82 48.932 53.211 49.4142 53.211C49.8964 53.211 50.2873 52.82 50.2873 52.3379V49.7186H52.9065C53.3887 49.7186 53.7796 49.3277 53.7796 48.8455C53.7796 48.3634 53.3887 47.9725 52.9065 47.9725ZM48.5411 47.9725H38.8673L48.5411 34.1533V47.9725Z" />
    <path
        d="M37.191 51.4648H26.8546L36.4646 40.1487C36.4864 40.1228 36.5068 40.0957 36.5257 40.0675C38.3337 37.3918 37.7314 33.769 35.155 31.8221C32.0222 29.5712 27.6579 30.2862 25.4071 33.4189C24.5535 34.6068 24.0945 36.0327 24.0947 37.4954C24.0947 37.9776 24.4857 38.3685 24.9678 38.3685C25.45 38.3685 25.8409 37.9776 25.8409 37.4954C25.8406 34.6022 28.1858 32.2567 31.0789 32.2564C32.1755 32.2563 33.2445 32.6003 34.1352 33.24C35.94 34.6229 36.3603 37.1697 35.0956 39.0591L24.3025 51.773C23.9905 52.1407 24.0357 52.6916 24.4034 53.0036C24.5611 53.1374 24.761 53.2109 24.9678 53.211H37.191C37.6732 53.211 38.0641 52.82 38.0641 52.3379C38.0641 51.8557 37.6732 51.4648 37.191 51.4648Z" />
    <path
        d="M24.987 47.116C25.0053 46.6341 24.6293 46.2288 24.1475 46.2106H24.1471C12.7566 45.7878 3.61446 36.662 3.17126 25.2722H6.63304C7.1152 25.2722 7.50613 24.8813 7.50613 24.3992C7.50613 23.917 7.1152 23.5261 6.63304 23.5261H3.17126C3.60813 12.1564 12.725 3.0399 24.0947 2.60347V5.19129C24.0947 5.67345 24.4857 6.06438 24.9678 6.06438C25.45 6.06438 25.8409 5.67345 25.8409 5.19129V2.60347C37.055 3.03717 46.1059 11.9171 46.753 23.121L43.348 19.7159C43.0012 19.3809 42.4485 19.3905 42.1135 19.7373C41.7867 20.0756 41.7867 20.612 42.1135 20.9505L46.987 25.824C47.0788 25.9351 47.1971 26.0212 47.331 26.0746C47.3652 26.0849 47.3999 26.0934 47.4349 26.0999C47.4948 26.1215 47.5568 26.1365 47.62 26.1445C47.6287 26.1445 47.6366 26.1445 47.6453 26.1445C47.6541 26.1445 47.6619 26.1445 47.6698 26.1445C47.7362 26.1394 47.8019 26.1266 47.8654 26.106C47.9013 26.1017 47.9368 26.095 47.9719 26.086C48.0901 26.0439 48.1977 25.9766 48.2871 25.8886L53.227 20.9505C53.5619 20.6036 53.5524 20.051 53.2056 19.7159C52.8673 19.3892 52.3309 19.3892 51.9924 19.7159L48.5027 23.203C47.879 10.6885 37.5599 0.856534 25.0298 0.83809C25.008 0.837217 24.9897 0.825867 24.9678 0.825867C24.946 0.825867 24.9277 0.837217 24.9058 0.83809C11.9351 0.855879 1.42454 11.3664 1.40675 24.3372C1.40675 24.359 1.39453 24.3773 1.39453 24.3992C1.39453 24.421 1.40588 24.4393 1.40675 24.4611C1.42847 37.1118 11.4406 47.4855 24.0825 47.9559H24.1148C24.584 47.9558 24.9692 47.5848 24.987 47.116Z" />
    <path
        d="M36.6977 12.6693C36.3568 12.3284 35.8041 12.3284 35.4632 12.6693L26.081 22.0506C25.3722 21.7345 24.5625 21.7345 23.8538 22.0506L19.4115 17.6083C19.0647 17.2734 18.5119 17.283 18.177 17.6298C17.8502 17.9681 17.8502 18.5045 18.177 18.8428L22.6105 23.2764C21.988 24.5795 22.5398 26.1405 23.843 26.7629C24.8432 27.2407 26.036 27.0359 26.8196 26.2518C27.6075 25.4707 27.8104 24.2745 27.3243 23.2772L36.6977 13.9038C37.0386 13.5629 37.0386 13.0102 36.6977 12.6693ZM25.5853 25.0162L25.5851 25.0164C25.2398 25.3466 24.6959 25.3466 24.3506 25.0164C24.0095 24.6755 24.0095 24.1227 24.3503 23.7817C24.6913 23.4406 25.244 23.4406 25.5851 23.7815C25.9261 24.1224 25.9261 24.6753 25.5853 25.0162Z" />
    <path
        d="M52.9065 47.9725H50.2873V31.3838C50.287 30.9017 49.8957 30.5111 49.4135 30.5114C49.129 30.5116 48.8624 30.6504 48.6991 30.8836L36.476 48.3453C36.1996 48.7404 36.296 49.2848 36.6912 49.561C36.8377 49.6635 37.0121 49.7185 37.191 49.7186H48.5411V52.3379C48.5411 52.82 48.932 53.211 49.4142 53.211C49.8964 53.211 50.2873 52.82 50.2873 52.3379V49.7186H52.9065C53.3887 49.7186 53.7796 49.3277 53.7796 48.8455C53.7796 48.3634 53.3887 47.9725 52.9065 47.9725ZM48.5411 47.9725H38.8673L48.5411 34.1533V47.9725Z" />
    <path
        d="M37.191 51.4648H26.8546L36.4646 40.1487C36.4864 40.1228 36.5068 40.0957 36.5257 40.0675C38.3337 37.3918 37.7314 33.769 35.155 31.8221C32.0222 29.5712 27.6579 30.2862 25.4071 33.4189C24.5535 34.6068 24.0945 36.0327 24.0947 37.4954C24.0947 37.9776 24.4857 38.3685 24.9678 38.3685C25.45 38.3685 25.8409 37.9776 25.8409 37.4954C25.8406 34.6022 28.1858 32.2567 31.0789 32.2564C32.1755 32.2563 33.2445 32.6003 34.1352 33.24C35.94 34.6229 36.3603 37.1697 35.0956 39.0591L24.3025 51.773C23.9905 52.1407 24.0357 52.6916 24.4034 53.0036C24.5611 53.1374 24.761 53.2109 24.9678 53.211H37.191C37.6732 53.211 38.0641 52.82 38.0641 52.3379C38.0641 51.8557 37.6732 51.4648 37.191 51.4648Z" />
    <path
        d="M24.987 47.116C25.0053 46.6341 24.6293 46.2288 24.1475 46.2106H24.1471C12.7566 45.7878 3.61446 36.662 3.17126 25.2722H6.63304C7.1152 25.2722 7.50613 24.8813 7.50613 24.3992C7.50613 23.917 7.1152 23.5261 6.63304 23.5261H3.17126C3.60813 12.1564 12.725 3.0399 24.0947 2.60347V5.19129C24.0947 5.67345 24.4857 6.06438 24.9678 6.06438C25.45 6.06438 25.8409 5.67345 25.8409 5.19129V2.60347C37.055 3.03717 46.1059 11.9171 46.753 23.121L43.348 19.7159C43.0012 19.3809 42.4485 19.3905 42.1135 19.7373C41.7867 20.0756 41.7867 20.612 42.1135 20.9505L46.987 25.824C47.0788 25.9351 47.1971 26.0212 47.331 26.0746C47.3652 26.0849 47.3999 26.0934 47.4349 26.0999C47.4948 26.1215 47.5568 26.1365 47.62 26.1445C47.6287 26.1445 47.6366 26.1445 47.6453 26.1445C47.6541 26.1445 47.6619 26.1445 47.6698 26.1445C47.7362 26.1394 47.8019 26.1266 47.8654 26.106C47.9013 26.1017 47.9368 26.095 47.9719 26.086C48.0901 26.0439 48.1977 25.9766 48.2871 25.8886L53.227 20.9505C53.5619 20.6036 53.5524 20.051 53.2056 19.7159C52.8673 19.3892 52.3309 19.3892 51.9924 19.7159L48.5027 23.203C47.879 10.6885 37.5599 0.856534 25.0298 0.83809C25.008 0.837217 24.9897 0.825867 24.9678 0.825867C24.946 0.825867 24.9277 0.837217 24.9058 0.83809C11.9351 0.855879 1.42454 11.3664 1.40675 24.3372C1.40675 24.359 1.39453 24.3773 1.39453 24.3992C1.39453 24.421 1.40588 24.4393 1.40675 24.4611C1.42847 37.1118 11.4406 47.4855 24.0825 47.9559H24.1148C24.584 47.9558 24.9692 47.5848 24.987 47.116Z" />
    <path
        d="M36.6977 12.6693C36.3568 12.3284 35.8041 12.3284 35.4632 12.6693L26.081 22.0506C25.3722 21.7345 24.5625 21.7345 23.8538 22.0506L19.4115 17.6083C19.0647 17.2734 18.5119 17.283 18.177 17.6298C17.8502 17.9681 17.8502 18.5045 18.177 18.8428L22.6105 23.2764C21.988 24.5795 22.5398 26.1405 23.843 26.7629C24.8432 27.2407 26.036 27.0359 26.8196 26.2518C27.6075 25.4707 27.8104 24.2745 27.3243 23.2772L36.6977 13.9038C37.0386 13.5629 37.0386 13.0102 36.6977 12.6693ZM25.5853 25.0162L25.5851 25.0164C25.2398 25.3466 24.6959 25.3466 24.3506 25.0164C24.0095 24.6755 24.0095 24.1227 24.3503 23.7817C24.6913 23.4406 25.244 23.4406 25.5851 23.7815C25.9261 24.1224 25.9261 24.6753 25.5853 25.0162Z" />
</svg>