<svg id="call" width="22" height="22" viewBox="0 0 22 22" fill="none" xmlns="http://www.w3.org/2000/svg">
    <path
        d="M20.9389 16.0571V19.0571C20.94 19.3356 20.883 19.6112 20.7714 19.8664C20.6598 20.1216 20.4962 20.3506 20.291 20.5389C20.0858 20.7272 19.8435 20.8705 19.5796 20.9598C19.3158 21.049 19.0363 21.0821 18.7589 21.0571C15.6817 20.7227 12.7259 19.6712 10.1289 17.9871C7.71273 16.4517 5.66423 14.4032 4.1289 11.9871C2.43888 9.37826 1.38714 6.40805 1.0589 3.31706C1.03391 3.04053 1.06677 2.76182 1.1554 2.49868C1.24402 2.23555 1.38647 1.99375 1.57366 1.78868C1.76086 1.58361 1.9887 1.41977 2.24269 1.30758C2.49667 1.19539 2.77124 1.13732 3.0489 1.13706H6.0489C6.5342 1.13228 7.00469 1.30414 7.37266 1.62059C7.74063 1.93705 7.98098 2.37651 8.0489 2.85706C8.17552 3.81713 8.41035 4.75979 8.7489 5.66706C8.88344 6.02498 8.91256 6.41397 8.8328 6.78794C8.75305 7.16191 8.56776 7.50517 8.2989 7.77706L7.0289 9.04706C8.45245 11.5506 10.5254 13.6235 13.0289 15.0471L14.2989 13.7771C14.5708 13.5082 14.9141 13.3229 15.288 13.2432C15.662 13.1634 16.051 13.1925 16.4089 13.3271C17.3162 13.6656 18.2588 13.9004 19.2189 14.0271C19.7047 14.0956 20.1483 14.3403 20.4654 14.7146C20.7826 15.0888 20.9511 15.5666 20.9389 16.0571Z"
        stroke-linecap="round" stroke-linejoin="round" />
</svg>