<svg width="61" height="59" viewBox="0 0 61 59" fill="none" xmlns="http://www.w3.org/2000/svg">
    <path
        d="M60.0566 32.1846C59.5179 26.766 57.0971 21.6576 53.2399 17.8003C49.9436 14.504 45.9089 12.3858 41.6636 11.444V8.4664C43.3975 8.03502 44.6864 6.4655 44.6864 4.59995C44.6864 2.40286 42.899 0.615479 40.7019 0.615479H32.2642C30.0672 0.615479 28.2798 2.40286 28.2798 4.59995C28.2798 6.46538 29.5686 8.03491 31.3025 8.4664V11.4523C27.0701 12.3981 23.0489 14.5134 19.7619 17.8004C19.0426 18.5197 18.3793 19.2743 17.7721 20.0585C17.7427 20.0563 17.7133 20.0541 17.6833 20.0541H9.33222C8.6851 20.0541 8.16032 20.5787 8.16032 21.226C8.16032 21.8732 8.6851 22.3979 9.33222 22.3979H16.1775C15.3183 23.8364 14.6255 25.3471 14.0981 26.9022H1.34372C0.696592 26.9022 0.171814 27.4268 0.171814 28.0741C0.171814 28.7213 0.696592 29.246 1.34372 29.246H13.4359C13.0981 30.7286 12.9043 32.2374 12.8543 33.7504H7.67199C7.02486 33.7504 6.50009 34.2751 6.50009 34.9223C6.50009 35.5696 7.02486 36.0942 7.67199 36.0942H12.8916C12.9905 37.6111 13.2344 39.1201 13.6234 40.5987H6.03133C5.3842 40.5987 4.85942 41.1233 4.85942 41.7706C4.85942 42.4178 5.3842 42.9425 6.03133 42.9425H14.3713C15.5209 45.9837 17.3176 48.8341 19.7619 51.2784C23.6229 55.1394 28.7366 57.5608 34.1608 58.0967C34.935 58.1731 35.7097 58.2109 36.4834 58.2109C41.0564 58.2109 45.5713 56.8875 49.4023 54.3928C49.9446 54.0396 50.098 53.3136 49.7448 52.7712C49.3916 52.2289 48.6656 52.0755 48.1232 52.4287C39.7375 57.8894 28.5068 56.7087 21.4192 49.6211C13.1032 41.3051 13.1032 27.774 21.4192 19.4578C29.7352 11.1419 43.2663 11.1419 51.5825 19.4578C58.6606 26.5361 59.8478 37.7572 54.4051 46.1388C54.0526 46.6817 54.2069 47.4075 54.7496 47.7599C55.2927 48.1124 56.0183 47.9581 56.3707 47.4153C59.2787 42.9368 60.5877 37.5279 60.0566 32.1846ZM30.6236 4.60006C30.6236 3.69535 31.3595 2.9594 32.2642 2.9594H40.7019C41.6066 2.9594 42.3426 3.69535 42.3426 4.60006C42.3426 5.50477 41.6066 6.24073 40.7019 6.24073H32.2642C31.3595 6.24073 30.6236 5.50465 30.6236 4.60006ZM33.6463 11.0494V8.58453H39.3198V11.0452C37.4358 10.8211 35.5299 10.8225 33.6463 11.0494Z" />
    <path
        d="M52.4117 49.2773C52.1023 49.2773 51.8011 49.4027 51.5833 49.6207C51.3641 49.8387 51.2398 50.141 51.2398 50.4492C51.2398 50.7574 51.3641 51.0598 51.5833 51.2777C51.8011 51.4969 52.1024 51.6211 52.4117 51.6211C52.7199 51.6211 53.0211 51.4969 53.2402 51.2777C53.4582 51.0598 53.5836 50.7574 53.5836 50.4492C53.5836 50.141 53.4583 49.8387 53.2402 49.6207C53.0211 49.4027 52.7198 49.2773 52.4117 49.2773Z" />
    <path
        d="M36.5009 16.3596C26.4767 16.3596 18.3213 24.5149 18.3213 34.5392C18.3213 44.5636 26.4767 52.7188 36.5009 52.7188C46.5251 52.7188 54.6805 44.5636 54.6805 34.5392C54.6805 24.5149 46.5251 16.3596 36.5009 16.3596ZM36.5009 50.375C27.7689 50.375 20.6651 43.2711 20.6651 34.5392C20.6651 25.8074 27.7689 18.7035 36.5009 18.7035C45.2329 18.7035 52.3367 25.8074 52.3367 34.5392C52.3367 43.2711 45.2329 50.375 36.5009 50.375Z" />
    <path
        d="M43.9139 25.469L38.1095 31.2733C37.6241 31.0333 37.0781 30.8977 36.5009 30.8977C35.9236 30.8977 35.3778 31.0333 34.8923 31.2733L32.2946 28.6755C31.8368 28.2179 31.095 28.2179 30.6372 28.6755C30.1795 29.1332 30.1795 29.8752 30.6372 30.3328L33.2349 32.9306C32.9948 33.416 32.8593 33.962 32.8593 34.5391C32.8593 36.5471 34.4928 38.1807 36.5009 38.1807C38.509 38.1807 40.1425 36.5471 40.1425 34.5391C40.1425 33.962 40.0069 33.416 39.7669 32.9306L45.5712 27.1263C46.0288 26.6686 46.0288 25.9266 45.5712 25.469C45.1136 25.0113 44.3717 25.0113 43.9139 25.469ZM36.5009 35.837C35.7853 35.837 35.2031 35.2548 35.2031 34.5392C35.2031 33.8237 35.7853 33.2415 36.5009 33.2415C37.2165 33.2415 37.7987 33.8237 37.7987 34.5392C37.7987 35.2548 37.2165 35.837 36.5009 35.837Z" />
    <path
        d="M49.0307 33.3816H47.945C47.2979 33.3816 46.7731 33.9063 46.7731 34.5535C46.7731 35.2008 47.2979 35.7254 47.945 35.7254H49.0307C49.6778 35.7254 50.2026 35.2008 50.2026 34.5535C50.2026 33.9063 49.6778 33.3816 49.0307 33.3816Z" />
    <path
        d="M25.0567 33.3531H23.971C23.3239 33.3531 22.7991 33.8777 22.7991 34.5249C22.7991 35.1722 23.3239 35.6968 23.971 35.6968H25.0567C25.7038 35.6968 26.2285 35.1722 26.2285 34.5249C26.2285 33.8777 25.7038 33.3531 25.0567 33.3531Z" />
    <path
        d="M36.5152 24.2669C37.1623 24.2669 37.6871 23.7422 37.6871 23.095V22.0094C37.6871 21.3621 37.1623 20.8375 36.5152 20.8375C35.8681 20.8375 35.3433 21.3621 35.3433 22.0094V23.095C35.3433 23.7422 35.8681 24.2669 36.5152 24.2669Z" />
    <path
        d="M36.4866 44.8116C35.8395 44.8116 35.3147 45.3362 35.3147 45.9834V47.0691C35.3147 47.7163 35.8395 48.241 36.4866 48.241C37.1337 48.241 37.6585 47.7163 37.6585 47.0691V45.9834C37.6585 45.3362 37.1337 44.8116 36.4866 44.8116Z" />
    <path
        d="M1.3437 40.5982C1.03549 40.5982 0.733147 40.7236 0.515176 40.9416C0.297206 41.1595 0.171814 41.4619 0.171814 41.7701C0.171814 42.0795 0.297089 42.3807 0.515176 42.5986C0.733264 42.8166 1.03549 42.942 1.3437 42.942C1.6519 42.942 1.95425 42.8166 2.1721 42.5986C2.39007 42.3807 2.51558 42.0783 2.51558 41.7701C2.51558 41.4619 2.39019 41.1595 2.1721 40.9416C1.95425 40.7236 1.6519 40.5982 1.3437 40.5982Z" />
</svg>