<svg width="35" height="35" viewBox="0 0 35 35" fill="none" xmlns="http://www.w3.org/2000/svg">
    <circle cx="17.0732" cy="17.7621" r="16.5732" />
    <path
        d="M20.63 10.6484H13.5161C11.5517 10.6484 9.95923 12.2409 9.95923 14.2053V21.3192C9.95923 23.2836 11.5517 24.8761 13.5161 24.8761H20.63C22.5944 24.8761 24.1869 23.2836 24.1869 21.3192V14.2053C24.1869 12.2409 22.5944 10.6484 20.63 10.6484Z"
        stroke-linecap="round" stroke-linejoin="round" />
    <path
        d="M19.9188 17.3139C20.0066 17.9059 19.9055 18.5106 19.6298 19.0418C19.3542 19.5731 18.918 20.0039 18.3834 20.273C17.8488 20.5421 17.2429 20.6357 16.652 20.5407C16.0611 20.4456 15.5152 20.1666 15.092 19.7434C14.6688 19.3201 14.3898 18.7743 14.2947 18.1833C14.1996 17.5924 14.2933 16.9866 14.5624 16.452C14.8314 15.9173 15.2623 15.4812 15.7935 15.2055C16.3248 14.9299 16.9294 14.8287 17.5215 14.9165C18.1254 15.0061 18.6845 15.2875 19.1162 15.7192C19.5479 16.1509 19.8293 16.71 19.9188 17.3139Z"
        stroke-linecap="round" stroke-linejoin="round" />
    <path d="M20.9858 13.8496H20.993" stroke-linecap="round" stroke-linejoin="round" />
</svg>