<svg width="61" height="58" viewBox="0 0 61 58" fill="none" xmlns="http://www.w3.org/2000/svg">
    <path
        d="M57.8497 51.5186H57.1959C56.9042 51.0657 56.6485 50.5822 56.4387 50.0755C56.253 49.6269 55.7389 49.414 55.2904 49.5996C54.8419 49.7853 54.6289 50.2994 54.8145 50.7479C54.9231 51.0104 55.0447 51.2665 55.1726 51.5186H20.6952C20.4296 51.5186 20.173 51.5562 19.9291 51.6251C19.3796 50.6934 18.6374 48.961 18.6374 46.3924C18.6374 46.0092 18.6543 45.6314 18.6874 45.2612H35.5268C36.0123 45.2612 36.4057 44.8676 36.4057 44.3822C36.4057 43.8969 36.0123 43.5033 35.5268 43.5033H19.4277L21.4929 41.2662H55.1681C54.8064 41.9761 54.5229 42.7254 54.322 43.5033H42.769C42.2835 43.5033 41.8901 43.8969 41.8901 44.3822C41.8901 44.8676 42.2835 45.2612 42.769 45.2612H54.0143C53.9799 45.6184 53.96 45.9789 53.9584 46.3427C53.9563 46.8281 54.3482 47.2233 54.8337 47.2254H54.8375C55.3211 47.2254 55.7142 46.8343 55.7163 46.3502C55.724 44.5046 56.2355 42.751 57.1943 41.2662H57.8498C59.4067 41.2662 60.6733 39.9995 60.6733 38.4427C60.6733 36.8858 59.4067 35.6191 57.8498 35.6191H46.8628L56.9291 25.5528C57.5007 24.9812 57.8153 24.2214 57.8153 23.4131C57.8153 22.6049 57.5006 21.845 56.9292 21.2737L56.7079 21.0524C56.1364 20.4809 55.3765 20.1661 54.5683 20.1661C53.8312 20.1661 53.1347 20.4287 52.5843 20.9083L51.0285 19.3525L51.5582 18.8228C52.2692 18.112 52.4828 17.0513 52.1023 16.1207L51.3864 14.3695C51.1395 13.7655 50.6112 13.3275 49.9724 13.1962L48.75 11.9738C48.4066 11.6305 47.8502 11.6305 47.507 11.9738C47.1637 12.317 47.1637 12.8735 47.507 13.2167L48.1084 13.8181L34.2567 27.6696L30.1831 23.5962L44.0349 9.74449L44.5741 10.2837C44.7457 10.4554 44.9707 10.5411 45.1956 10.5411C45.4204 10.5411 45.6454 10.4554 45.8171 10.2837C46.1604 9.94043 46.1604 9.3839 45.817 9.04077L44.6568 7.88061C44.5255 7.24181 44.0875 6.71353 43.4835 6.46649L41.7323 5.75059C40.802 5.37031 39.7411 5.58359 39.0301 6.29458L38.5005 6.82427L36.9444 5.26848C37.4241 4.71804 37.6866 4.02159 37.6866 3.28447C37.6866 2.47622 37.3718 1.71637 36.8004 1.14508L36.5792 0.923711C36.0076 0.3523 35.2478 0.0374146 34.4395 0.0374146C33.6313 0.0374146 32.8714 0.352183 32.2999 0.923711L21.3621 11.8615C20.7906 12.433 20.4758 13.1929 20.4758 14.0011C20.4758 14.8094 20.7906 15.5692 21.3621 16.1406L21.5831 16.3618C22.1546 16.9333 22.9145 17.2481 23.7227 17.2481C24.46 17.2481 25.1563 16.9855 25.7069 16.5058L27.2628 18.0618L26.733 18.5916C26.0221 19.3025 25.8086 20.3632 26.189 21.2937L26.9049 23.0448C27.1492 23.6425 27.6691 24.0771 28.2988 24.2134L23.8918 29.4704C22.8041 29.0214 21.504 29.2379 20.6215 30.1205C20.0546 30.6874 19.7424 31.441 19.7424 32.2426C19.7424 32.6014 19.8055 32.9504 19.9254 33.2775L17.9267 35.1225C17.5701 35.4518 17.5478 36.0077 17.8771 36.3644C18.0504 36.5522 18.2864 36.6472 18.5232 36.6472C18.7364 36.6472 18.9501 36.5701 19.1191 36.4141L20.966 34.7093L23.1434 36.8866L6.77717 54.6155C6.31041 55.121 5.67442 55.4071 4.98641 55.4209C4.29734 55.4342 3.65152 55.1744 3.16495 54.6877C2.67838 54.201 2.41799 53.5542 2.4317 52.8662C2.44541 52.1782 2.73147 51.5422 3.23714 51.0755L16.0749 39.2244C16.4315 38.8951 16.4538 38.3391 16.1245 37.9825C15.7954 37.6259 15.2394 37.6035 14.8825 37.9329L2.04474 49.7839C1.18435 50.5782 0.697662 51.6604 0.674224 52.8311C0.650786 54.0018 1.09399 55.1027 1.92193 55.9306C2.72912 56.7379 3.79554 57.1792 4.93332 57.1792C4.96262 57.1792 4.99204 57.179 5.02145 57.1784C6.19216 57.155 7.2744 56.6683 8.06859 55.8079L13.3362 50.1016C13.7657 51.5741 14.3717 52.5839 14.7493 53.1148C15.1304 53.6507 15.7535 53.9706 16.416 53.9706H17.8967C17.8807 54.0923 17.8715 54.2161 17.8715 54.3421C17.8715 55.8989 19.1382 57.1656 20.6951 57.1656H57.8497C59.4065 57.1656 60.6732 55.8989 60.6732 54.3421C60.6731 52.7853 59.4065 51.5186 57.8497 51.5186ZM58.9153 38.4427C58.9153 39.0303 58.4373 39.5084 57.8496 39.5084H23.1156L24.5766 37.9257C24.9096 38.0474 25.2599 38.1089 25.6103 38.1089C26.3117 38.1089 27.0127 37.8643 27.5746 37.377H57.8497C58.4373 37.377 58.9153 37.8551 58.9153 38.4427ZM32.4 28.2992L27.3108 32.5657L25.2873 30.5423L29.5538 25.453L32.4 28.2992ZM28.5658 35.6191C28.6607 35.0642 28.5999 34.4878 28.3825 33.9609L33.6394 29.5539C33.7758 30.1836 34.2104 30.7035 34.808 30.9479L36.5592 31.6638C36.8654 31.7889 37.1857 31.8498 37.5031 31.8498C38.1499 31.8498 38.7844 31.5966 39.2612 31.1198L39.791 30.59L41.347 32.1459C40.4954 33.1249 40.3788 34.5246 40.9972 35.619L28.5658 35.6191ZM54.5684 21.924C54.9072 21.924 55.2255 22.056 55.4649 22.2953L55.6861 22.5166C55.9257 22.756 56.0575 23.0746 56.0575 23.4131C56.0575 23.7518 55.9257 24.0702 55.686 24.3097L44.7481 35.2476C44.5087 35.4871 44.1902 35.619 43.8516 35.619C43.5131 35.619 43.1946 35.4872 42.9551 35.2476L42.734 35.0265C42.2396 34.5321 42.2396 33.7277 42.734 33.2333L53.6719 22.2954C53.9112 22.0558 54.2297 21.924 54.5684 21.924ZM51.3355 22.1456L42.5841 30.897L41.0341 29.3471L49.7855 20.5956L51.3355 22.1456ZM35.4093 29.0031L49.4415 14.9709C49.4861 14.9263 49.5346 14.9134 49.5758 14.9134C49.5909 14.9134 49.605 14.9152 49.6174 14.9177C49.664 14.927 49.7265 14.9549 49.7591 15.0348L50.475 16.7861C50.5868 17.0595 50.5241 17.371 50.3152 17.5798L38.0182 29.877C37.8096 30.0857 37.4979 30.1485 37.2245 30.0367L35.4734 29.3208C35.3934 29.2883 35.3655 29.2258 35.3562 29.1791C35.3468 29.1325 35.3483 29.0641 35.4093 29.0031ZM23.723 15.4905C23.3843 15.4905 23.0659 15.3586 22.8265 15.1191L22.6054 14.898C22.3658 14.6586 22.234 14.3402 22.234 14.0015C22.234 13.6627 22.3658 13.3444 22.6054 13.1049L33.5433 2.16696C33.7827 1.92743 34.1012 1.79559 34.4398 1.79559C34.7785 1.79559 35.0968 1.92755 35.3362 2.16685L35.5575 2.38822C35.797 2.62763 35.9289 2.94615 35.9289 3.28483C35.9289 3.6235 35.797 3.9419 35.5574 4.18143L24.6196 15.1193C24.3801 15.3585 24.0617 15.4905 23.723 15.4905ZM26.9557 15.2689L35.7073 6.51735L37.2573 8.0674L28.5058 16.8189L26.9557 15.2689ZM27.976 19.8345L40.273 7.53748C40.4131 7.39744 40.5994 7.32302 40.7895 7.32302C40.8828 7.32302 40.9769 7.34095 41.0669 7.37775L42.818 8.09366C42.8978 8.12623 42.9257 8.1887 42.9351 8.23534C42.9445 8.28198 42.9428 8.3503 42.8819 8.41124L28.8497 22.4435C28.7888 22.5044 28.7205 22.506 28.6737 22.4967C28.6272 22.4873 28.5647 22.4594 28.5322 22.3795L27.8161 20.6283C27.7045 20.355 27.7672 20.0435 27.976 19.8345ZM21.5004 32.2426C21.5004 31.9106 21.6298 31.5983 21.8645 31.3635C22.3493 30.8788 23.1379 30.8788 23.6227 31.3635L26.4892 34.2301C26.974 34.7149 26.974 35.5036 26.4892 35.9883C26.0044 36.473 25.2157 36.473 24.731 35.9883L21.8646 33.1217C21.6298 32.8869 21.5004 32.5747 21.5004 32.2426ZM16.1819 52.096C15.7919 51.5476 15.1033 50.368 14.7742 48.5441L16.881 46.262C16.8807 46.3054 16.8796 46.3488 16.8796 46.3924C16.8796 49.1025 17.615 51.0468 18.2429 52.2128H16.4163C16.3215 52.2128 16.2339 52.1692 16.1819 52.096ZM57.8497 55.4078H20.6952C20.1076 55.4078 19.6295 54.9297 19.6295 54.3421C19.6295 53.7544 20.1076 53.2764 20.6952 53.2764H57.8497C58.4374 53.2764 58.9154 53.7545 58.9154 54.3421C58.9153 54.9298 58.4373 55.4078 57.8497 55.4078Z" />
    <path
        d="M25.2627 47.4956C24.7773 47.4956 24.3838 47.8891 24.3838 48.3745C24.3838 48.8599 24.7773 49.2534 25.2627 49.2534H45.7387C46.2242 49.2534 46.6176 48.8599 46.6176 48.3745C46.6176 47.8891 46.2242 47.4956 45.7387 47.4956H25.2627Z" />
</svg>