<svg width="56" height="63" viewBox="0 0 56 63" fill="none" xmlns="http://www.w3.org/2000/svg">
    <path
        d="M54.983 55.0022L45.9306 39.3231C46.2557 38.9443 46.6976 38.6641 47.2133 38.5425C48.6393 38.2065 49.8217 37.2568 50.4573 35.9369C51.093 34.617 51.0981 33.1004 50.4718 31.7762C49.9924 30.7626 50.2664 29.5621 51.1381 28.857C52.2771 27.9355 52.9303 26.5669 52.9303 25.1019C52.9303 23.637 52.2771 22.2682 51.1381 21.3469C50.2664 20.6417 49.9924 19.4412 50.4718 18.4277C51.0983 17.1033 51.093 15.5867 50.4573 14.2668C49.8217 12.9469 48.6393 11.9972 47.2132 11.6612C46.1219 11.4041 45.3541 10.4415 45.3463 9.3202C45.3362 7.85526 44.6733 6.49118 43.528 5.57779C42.3826 4.66439 40.905 4.32169 39.4747 4.63779C38.3797 4.8795 37.2704 4.3454 36.7769 3.33859C36.1321 2.02315 34.9431 1.08171 33.5148 0.755734C32.0863 0.429641 30.6067 0.762114 29.4549 1.66744C28.5736 2.36044 27.3423 2.36044 26.4608 1.66744C25.309 0.762114 23.8294 0.429882 22.401 0.755734C20.9727 1.08171 19.7838 2.02315 19.1389 3.33859C18.6454 4.3454 17.5357 4.87986 16.4412 4.63779C15.0107 4.32193 13.5332 4.66439 12.388 5.57779C11.2426 6.49118 10.5799 7.85526 10.5696 9.3202C10.5618 10.4414 9.79406 11.4041 8.70263 11.6612C7.27668 11.9972 6.09425 12.9469 5.45868 14.2668C4.82298 15.5867 4.81781 17.1033 5.44411 18.4276C5.92356 19.4411 5.64959 20.6416 4.77784 21.3467C3.63887 22.2682 2.9856 23.6369 2.9856 25.1018C2.9856 26.5668 3.63887 27.9355 4.77784 28.8569C5.64959 29.562 5.92356 30.7625 5.44411 31.776C4.81769 33.1004 4.82298 34.617 5.45868 35.9369C6.09425 37.2568 7.27668 38.2065 8.70275 38.5425C9.21843 38.664 9.66032 38.9443 9.98545 39.3231L0.933225 55.0022C0.689468 55.4244 0.724497 55.952 1.02182 56.3383C1.31926 56.7246 1.82026 56.8932 2.2908 56.7658L8.59562 55.0552L10.2668 61.3707C10.3915 61.842 10.7882 62.1915 11.2715 62.2559C11.3248 62.263 11.3781 62.2665 11.4309 62.2665C11.8567 62.2665 12.2561 62.0402 12.473 61.6646L20.1971 48.2861C20.8089 48.8524 21.5632 49.2568 22.4013 49.4481C23.8294 49.7738 25.3093 49.4417 26.4611 48.5364C27.3425 47.8434 28.5738 47.8434 29.4553 48.5364C30.3172 49.2139 31.3625 49.5705 32.4327 49.5705C32.7927 49.5705 33.1556 49.5302 33.515 49.4481C34.3531 49.2568 35.1076 48.8524 35.7192 48.2861L43.4433 61.6646C43.6602 62.0403 44.0596 62.2665 44.4854 62.2665C44.5381 62.2665 44.5915 62.263 44.6448 62.2559C45.1281 62.1915 45.5248 61.8419 45.6495 61.3707L47.3207 55.0552L53.6255 56.7658C54.096 56.8936 54.5972 56.7246 54.8945 56.3383C55.1918 55.952 55.2268 55.4244 54.983 55.0022ZM11.8475 57.933L10.6132 53.2685C10.5311 52.9587 10.329 52.6942 10.0514 52.534C9.77371 52.3737 9.44377 52.3308 9.13441 52.4147L4.47763 53.678L10.888 42.575C11.1914 43.37 11.7025 44.0791 12.3882 44.6261C13.5336 45.5395 15.0112 45.8822 16.4415 45.5661C17.2493 45.3877 18.0643 45.6327 18.6348 46.1774L11.8475 57.933ZM32.9792 47.1011C32.2625 47.2644 31.5207 47.0978 30.9431 46.6439C30.0643 45.9529 29.0114 45.6076 27.9581 45.6076C26.9051 45.6076 25.8517 45.9531 24.9731 46.6439C24.3955 47.0979 23.6536 47.2647 22.9369 47.1011C22.2206 46.9376 21.6243 46.4654 21.3008 45.8056C20.3169 43.7983 18.1048 42.7331 15.922 43.2153C15.2045 43.3738 14.4636 43.2019 13.8892 42.7438C13.3147 42.2856 12.9823 41.6016 12.9771 40.8668C12.9616 38.6313 11.4309 36.712 9.2549 36.1993C8.53964 36.0308 7.94668 35.5545 7.62781 34.8924C7.30906 34.2303 7.30641 33.4698 7.62059 32.8055C8.57635 30.7846 8.0301 28.3913 6.29202 26.9853C5.72073 26.5232 5.39319 25.8367 5.39319 25.1019C5.39319 24.3672 5.72085 23.6807 6.29214 23.2186C8.0301 21.8126 8.57648 19.4192 7.62059 17.3982C7.30641 16.734 7.30906 15.9734 7.62793 15.3114C7.94668 14.6494 8.53976 14.1731 9.2549 14.0045C11.4309 13.4919 12.9616 11.5725 12.9771 9.33706C12.9823 8.6023 13.3146 7.91809 13.8892 7.46007C14.4636 7.00193 15.2044 6.82991 15.9222 6.98857C18.1047 7.47042 20.3169 6.4056 21.3008 4.39824C21.6243 3.73847 22.2206 3.26625 22.9369 3.10278C23.6535 2.93943 24.3955 3.10591 24.9731 3.55996C26.7306 4.94173 29.1855 4.94173 30.9431 3.55996C31.5208 3.10591 32.2627 2.93943 32.9792 3.10278C33.6956 3.26625 34.2919 3.73847 34.6154 4.39824C35.5993 6.4056 37.8113 7.47042 39.9941 6.98857C40.7115 6.82979 41.4526 7.00193 42.027 7.46007C42.6014 7.91821 42.9339 8.6023 42.9391 9.33706C42.9546 11.5725 44.4853 13.4919 46.6613 14.0045C47.3765 14.1731 47.9695 14.6494 48.2884 15.3114C48.6071 15.9735 48.6098 16.734 48.2956 17.3984C47.3398 19.4192 47.8861 21.8126 49.6242 23.2186C50.1955 23.6807 50.523 24.3672 50.523 25.1019C50.523 25.8367 50.1953 26.5232 49.624 26.9853C47.8861 28.3913 47.3397 30.7846 48.2956 32.8056C48.6098 33.4698 48.6071 34.2305 48.2883 34.8924C47.9695 35.5545 47.3764 36.0308 46.6613 36.1993C44.4853 36.712 42.9546 38.6313 42.9391 40.8668C42.9339 41.6016 42.6016 42.2858 42.027 42.7438C41.4526 43.2019 40.7117 43.3737 39.994 43.2153C37.8113 42.7329 35.5993 43.7983 34.6154 45.8056C34.2919 46.4654 33.6956 46.9375 32.9792 47.1011ZM46.7818 52.4147C46.4723 52.3308 46.1424 52.3738 45.8648 52.534C45.5872 52.6944 45.385 52.9587 45.303 53.2685L44.0687 57.933L37.2815 46.1774C37.8521 45.6326 38.6671 45.3874 39.4747 45.5661C40.9054 45.882 42.3826 45.5395 43.528 44.6261C44.2137 44.0792 44.7248 43.37 45.0282 42.575L51.4386 53.678L46.7818 52.4147Z" />
    <path
        d="M33.6851 34.2049C33.9334 34.2049 34.1818 34.1283 34.3927 33.975C34.8135 33.6693 34.9903 33.1277 34.8311 32.6326L32.9336 26.7333L37.9374 23.0568C38.3567 22.7487 38.5306 22.2061 38.3686 21.7117C38.2065 21.2173 37.7451 20.8831 37.2248 20.8831H31.0328L29.1019 14.9998C28.9396 14.5055 28.4784 14.1714 27.9582 14.1714C27.4381 14.1714 26.9767 14.5055 26.8145 14.9998L24.8836 20.8831H18.6916C18.1714 20.8831 17.7098 21.2173 17.5478 21.7117C17.3857 22.2061 17.5596 22.7487 17.979 23.0568L22.9828 26.7333L21.0854 32.6326C20.9261 33.1278 21.1029 33.6693 21.5238 33.975C21.9447 34.2808 22.5143 34.2815 22.936 33.9771L27.9585 30.3507L32.9809 33.9771C33.1909 34.129 33.4379 34.2049 33.6851 34.2049ZM28.6626 27.8901C28.4522 27.7382 28.2051 27.6623 27.958 27.6623C27.7109 27.6623 27.4637 27.7382 27.2533 27.8901L24.4999 29.8782L25.5398 26.6451C25.6983 26.1522 25.5239 25.613 25.1066 25.3064L22.3626 23.2903H25.7553C26.2754 23.2903 26.7368 22.9561 26.8989 22.4619L27.958 19.235L29.017 22.4619C29.1793 22.9561 29.6406 23.2903 30.1607 23.2903H33.5533L30.8094 25.3064C30.3921 25.613 30.2176 26.1521 30.3762 26.6451L31.4161 29.8782L28.6626 27.8901Z" />
    <path
        d="M44.8103 25.1019C44.8103 15.8096 37.2503 8.2496 27.958 8.2496C18.6656 8.2496 11.1057 15.8096 11.1057 25.1019C11.1057 32.1711 15.5688 38.5395 22.2116 40.9488C22.8364 41.1753 23.5269 40.8526 23.7537 40.2276C23.9803 39.6026 23.6575 38.9123 23.0325 38.6855C17.3387 36.6205 13.5133 31.1617 13.5133 25.1019C13.5133 17.137 19.9932 10.6571 27.9581 10.6571C35.923 10.6571 42.4029 17.137 42.4029 25.1019C42.4029 31.162 38.5771 36.621 32.8829 38.6859C32.258 38.9125 31.935 39.6029 32.1617 40.2278C32.3392 40.7173 32.8011 41.0216 33.2933 41.0216C33.4296 41.0216 33.5681 40.9982 33.7037 40.9491C40.3468 38.5401 44.8103 32.1716 44.8103 25.1019Z" />
    <path
        d="M27.958 39.5465C27.6414 39.5465 27.3308 39.6753 27.1069 39.8992C26.883 40.1231 26.7542 40.4337 26.7542 40.7503C26.7542 41.0669 26.883 41.3775 27.1069 41.6014C27.3308 41.8253 27.6414 41.9541 27.958 41.9541C28.2746 41.9541 28.5852 41.8253 28.8091 41.6014C29.033 41.3775 29.1618 41.0669 29.1618 40.7503C29.1618 40.4337 29.033 40.1231 28.8091 39.8992C28.5852 39.6753 28.2746 39.5465 27.958 39.5465Z" />
</svg>