<svg width="54" height="64" viewBox="0 0 54 64" fill="none" xmlns="http://www.w3.org/2000/svg">
    <path
        d="M53.1015 45.4663C53.1015 44.0885 52.5056 42.8473 51.5583 41.9874C52.5057 41.128 53.1015 39.8879 53.1015 38.511C53.1015 35.921 50.9962 33.814 48.4084 33.814H33.54C34.8749 30.1833 36.4249 24.0788 33.7681 20.0314C32.7876 18.5386 31.9126 17.6313 30.3013 16.4363C29.8159 16.0759 28.6797 15.2315 27.5232 15.7081C26.4142 16.1653 26.0805 17.4915 25.9141 18.5943L25.9048 18.6549C25.5824 20.7749 24.9821 24.7208 23.5537 28.0859C21.9176 31.9404 19.7759 33.8141 17.0059 33.8141H14.4607C14.1547 31.8593 12.4584 30.3588 10.4176 30.3588H5.07175C2.817 30.3587 0.982605 32.1933 0.982605 34.4483V40.8719C0.982605 41.5445 1.52778 42.0897 2.20034 42.0897C2.87289 42.0897 3.41807 41.5445 3.41807 40.8719V34.4483C3.41807 33.5362 4.15991 32.7941 5.07175 32.7941H10.4176C11.3314 32.7941 12.0747 33.5362 12.0747 34.4483V58.2309C12.0747 59.143 11.3314 59.885 10.4176 59.885H5.07175C4.15991 59.885 3.41807 59.1429 3.41807 58.2309V51.8072C3.41807 51.1346 2.87289 50.5894 2.20034 50.5894C1.52778 50.5894 0.982605 51.1346 0.982605 51.8072V58.2309C0.982605 60.4859 2.817 62.3205 5.07175 62.3205H10.4176C12.4584 62.3205 14.1547 60.8201 14.4607 58.8653C14.4607 58.8653 18.173 58.8647 18.4343 58.8839C18.4508 58.913 18.4678 58.943 18.4835 58.9707C18.6351 59.2392 18.8641 59.6451 19.2647 60.1788C20.6659 62.0517 24.0684 63.211 26.4172 63.211H45.7302C48.0802 63.211 49.9919 61.2974 49.9919 58.9454C49.9919 58.2391 49.8183 57.5731 49.513 56.9859C51.5694 56.4874 53.1015 54.6307 53.1015 52.4216C53.1015 51.0448 52.5056 49.8046 51.5583 48.9453C52.5056 48.0853 53.1015 46.8442 53.1015 45.4663ZM34.672 60.7756H26.4174C24.5338 60.7756 22.0054 59.7766 21.2138 58.7185C20.9074 58.3101 20.7394 58.0127 20.6045 57.7737C19.8453 56.4286 19.2218 56.4269 17.1641 56.4298H14.5104V36.2493H17.0061C20.8073 36.2493 23.7645 33.8229 25.7958 29.0373C27.3439 25.3899 27.9741 21.2469 28.3126 19.021L28.3221 18.959C28.3799 18.5764 28.4422 18.318 28.4952 18.147C28.5872 18.2045 28.704 18.2834 28.8499 18.3918C30.2359 19.4197 30.9095 20.1151 31.7324 21.368C34.0183 24.8504 32.0186 31.0175 31.0529 33.5064C30.9372 33.8039 30.5853 34.7091 31.1172 35.4866C31.6389 36.2493 32.5793 36.2493 32.8884 36.2493H34.3573C33.9871 36.9206 33.776 37.6915 33.776 38.5109C33.776 39.9006 34.3835 41.1504 35.3463 42.0106C34.4136 42.8696 33.8279 44.1006 33.8279 45.4662C33.8279 46.8441 34.4238 48.0852 35.3711 48.9451C34.4238 49.8045 33.8279 51.0446 33.8279 52.4215C33.8279 53.8432 34.4632 55.1184 35.4634 55.9806C34.7189 56.7484 34.2592 57.7939 34.2592 58.9454C34.2591 59.6002 34.4075 60.2207 34.672 60.7756ZM45.7303 60.7756H38.5208C37.5137 60.7756 36.6945 59.9546 36.6945 58.9455C36.6945 57.9382 37.5138 57.1188 38.5208 57.1188H45.7303C46.7374 57.1188 47.5566 57.9382 47.5566 58.9455C47.5566 59.9546 46.7373 60.7756 45.7303 60.7756ZM48.4084 54.6832H38.5208C37.2759 54.6832 36.2632 53.6686 36.2632 52.4216C36.2632 51.1764 37.2759 50.1635 38.5208 50.1635H48.4084C49.6533 50.1635 50.666 51.1765 50.666 52.4216C50.666 53.6687 49.6533 54.6832 48.4084 54.6832ZM48.4084 47.728H38.5208C37.2759 47.728 36.2632 46.7134 36.2632 45.4663C36.2632 44.2192 37.2759 43.2046 38.5208 43.2046H48.4084C49.6533 43.2046 50.666 44.2192 50.666 45.4663C50.666 46.7134 49.6533 47.728 48.4084 47.728ZM48.4084 40.7692H38.469C37.2241 40.7692 36.2113 39.7561 36.2113 38.511C36.2113 37.2639 37.2241 36.2494 38.469 36.2494H48.4084C49.6533 36.2494 50.666 37.264 50.666 38.511C50.666 39.7561 49.6533 40.7692 48.4084 40.7692Z" />
    <path
        d="M27.3769 38.3677C26.7106 38.4591 26.2447 39.0734 26.336 39.7397C26.5944 41.6228 26.2317 43.2712 25.2869 44.5067C24.1363 46.0115 22.1534 46.9559 19.393 47.3135C18.726 47.3998 18.2554 48.0107 18.3419 48.6776C18.4214 49.2915 18.945 49.739 19.5479 49.739C19.6 49.739 19.6529 49.7357 19.706 49.7287C23.1336 49.2846 25.6624 48.0254 27.2217 45.986C28.5692 44.2235 29.0973 41.9491 28.7488 39.4086C28.6575 38.7424 28.0441 38.2763 27.3769 38.3677Z" />
    <path
        d="M29.0368 10.1505C29.7093 10.1505 30.2546 9.60534 30.2546 8.93279V2.08098C30.2546 1.40843 29.7093 0.863251 29.0368 0.863251C28.3644 0.863251 27.8191 1.40843 27.8191 2.08098V8.93279C27.8191 9.60534 28.3643 10.1505 29.0368 10.1505Z" />
    <path
        d="M37.8335 12.7847C38.0406 12.9222 38.2745 12.988 38.5058 12.988C38.9001 12.988 39.2871 12.7967 39.5215 12.4435L43.2971 6.755C43.669 6.1946 43.5163 5.43888 42.9559 5.06698C42.3956 4.69521 41.6396 4.84779 41.2678 5.40819L37.4923 11.0967C37.1205 11.6571 37.2732 12.4128 37.8335 12.7847Z" />
    <path
        d="M18.5524 12.444C18.7869 12.7969 19.1737 12.988 19.5679 12.988C19.7992 12.988 20.0333 12.9221 20.2405 12.7845C20.8007 12.4123 20.9532 11.6565 20.581 11.0963L16.8019 5.40782C16.4297 4.84755 15.674 4.69509 15.1138 5.06735C14.5536 5.43949 14.4012 6.19533 14.7733 6.75549L18.5524 12.444Z" />
    <path
        d="M2.20034 47.5607C2.87289 47.5607 3.41807 47.0121 3.41807 46.3396C3.41807 45.667 2.87289 45.1218 2.20034 45.1218C1.52778 45.1218 0.982605 45.667 0.982605 46.3396V46.3465C0.982605 47.0191 1.52778 47.5607 2.20034 47.5607Z" />
</svg>